<svg width="248" height="163" viewBox="0 0 248 163" fill="none" xmlns="http://www.w3.org/2000/svg">
<path d="M33.4046 78.5047C51.8534 78.5047 66.8092 63.6226 66.8092 45.2646C66.8092 26.9067 51.8534 12.0247 33.4046 12.0247C14.9558 12.0247 0 26.9067 0 45.2646C0 63.6226 14.9558 78.5047 33.4046 78.5047Z" fill="url(#paint0_linear_309_741)"/>
<path d="M238.125 131.626L169.547 161.354C161.222 164.96 151.535 161.177 147.902 152.893L118.026 84.6523C114.403 76.3684 118.204 66.7298 126.529 63.114L195.108 33.3856C203.433 29.7802 213.119 33.5627 216.753 41.8467L246.628 110.088C250.252 118.372 246.45 128.01 238.125 131.626Z" fill="#E23C3C"/>
<path d="M129.796 57.1225L99.7319 70.158C93.8783 72.69 87.0717 70.033 84.5166 64.2082L69.1652 29.1342C66.6206 23.3093 69.2908 16.5363 75.1445 13.9938L105.209 0.958329C111.062 -1.57375 117.869 1.08333 120.424 6.90815L135.775 41.9821C138.33 47.8069 135.65 54.58 129.796 57.1225Z" fill="url(#paint1_linear_309_741)"/>
<path d="M112.466 6.41837C114.225 5.3972 117.325 3.91753 121.45 3.53199C127.828 2.94847 132.655 5.36594 134.488 6.41837C146.467 11.1282 158.447 15.8381 170.426 20.548C172.259 20.8814 177.359 22.0797 181.443 26.602C183.862 29.28 184.972 32.083 185.495 33.8127C194.574 53.1315 203.653 72.4607 212.742 91.7795C213.13 92.3735 215.151 95.6246 214.187 99.8551C213.161 104.367 209.548 106.461 208.972 106.774C176.123 121.769 143.284 136.763 110.434 151.768C109.712 152.174 105.471 154.456 100.308 152.872C95.7531 151.476 93.5435 147.996 93.0408 147.152C78.0664 114.464 63.0919 81.7867 48.1174 49.099C47.5938 48.2341 46.0336 45.379 46.5886 41.6486C47.353 36.4698 51.5835 33.8753 52.1804 33.521C72.2755 24.4972 92.3707 15.4526 112.466 6.41837Z" fill="url(#paint2_linear_309_741)" stroke="#313131" stroke-width="3" stroke-miterlimit="10"/>
<path d="M125.649 140.379L104.853 95.1141C104.706 93.9366 104.58 91.5296 105.722 88.862C107.439 84.8503 110.821 83.0685 111.785 82.61C128.822 74.8471 145.87 67.0945 162.907 59.3315" stroke="#313131" stroke-width="3" stroke-miterlimit="10"/>
<path d="M72.4116 24.4243L89.6899 62.343C90.1715 63.0411 91.4595 64.7083 93.8051 65.5732C97.4493 66.9174 100.664 65.2085 101.167 64.9272C111.418 60.4049 121.67 55.8721 131.922 51.3498" stroke="#313131" stroke-width="3" stroke-miterlimit="10"/>
<path d="M57.6076 48.1697C60.1522 48.1697 62.2151 46.117 62.2151 43.5849C62.2151 41.0527 60.1522 39 57.6076 39C55.0629 39 53 41.0527 53 43.5849C53 46.117 55.0629 48.1697 57.6076 48.1697Z" stroke="#313131" stroke-width="3" stroke-miterlimit="10"/>
<path d="M103.607 147.17C106.152 147.17 108.215 145.117 108.215 142.585C108.215 140.053 106.152 138 103.607 138C101.063 138 99 140.053 99 142.585C99 145.117 101.063 147.17 103.607 147.17Z" stroke="#313131" stroke-width="3" stroke-miterlimit="10"/>
<path d="M203.607 101.17C206.152 101.17 208.215 99.117 208.215 96.5849C208.215 94.0527 206.152 92 203.607 92C201.063 92 199 94.0527 199 96.5849C199 99.117 201.063 101.17 203.607 101.17Z" stroke="#313131" stroke-width="3" stroke-miterlimit="10"/>
<path d="M94.9885 14.2751C94.4126 14.619 91.5852 16.3696 90.7789 19.8811C90.3181 21.9026 90.7266 23.5907 90.9989 24.4243C95.5854 34.5526 100.183 44.6705 104.769 54.7988C105.094 55.3511 106.706 57.9873 110.057 58.8939C112.644 59.592 114.79 58.8835 115.534 58.5917" stroke="#313131" stroke-width="3" stroke-miterlimit="10"/>
<path d="M123.921 104.169L169.19 83.2561" stroke="#313131" stroke-width="3" stroke-miterlimit="10"/>
<path d="M128.037 110.848C139.807 105.169 151.577 99.501 163.347 93.822" stroke="#313131" stroke-width="3" stroke-miterlimit="10"/>
<defs>
<linearGradient id="paint0_linear_309_741" x1="33.4046" y1="12.0247" x2="33.4046" y2="78.5047" gradientUnits="userSpaceOnUse">
<stop stop-color="#E73C3C"/>
<stop offset="1" stop-color="#E23C3C" stop-opacity="0"/>
</linearGradient>
<linearGradient id="paint1_linear_309_741" x1="102.473" y1="0" x2="102.473" y2="71.1163" gradientUnits="userSpaceOnUse">
<stop stop-color="#E23C3C"/>
<stop offset="1" stop-color="#E23C3C" stop-opacity="0"/>
</linearGradient>
<linearGradient id="paint2_linear_309_741" x1="130.458" y1="3.44238" x2="130.458" y2="153.425" gradientUnits="userSpaceOnUse">
<stop stop-color="#F8AD47"/>
<stop offset="1" stop-color="#F8AD47" stop-opacity="0"/>
</linearGradient>
</defs>
</svg>
