<svg width="250" height="155" viewBox="0 0 250 155" fill="none" xmlns="http://www.w3.org/2000/svg">
<path d="M70.3915 38.8723C76.4638 74.4297 82.5453 109.987 88.6176 145.554C88.5994 146.045 88.5265 148.772 90.6236 150.918C93.368 153.718 97.2702 152.9 97.4982 152.854C131.972 147.017 166.446 141.181 200.92 135.344C201.348 135.289 205.725 134.662 207.822 130.689C209.372 127.761 208.679 124.916 208.496 124.225C202.533 88.7127 196.561 53.2008 190.598 17.6888C190.653 16.7251 190.608 14.7977 189.386 13.0703C187.48 10.3883 183.496 9.31543 179.521 10.561C145.958 16.5342 112.406 22.5074 78.8435 28.4715C78.4332 28.4715 74.2665 28.5442 71.7591 32.0627C69.6073 35.0629 70.2729 38.3359 70.3915 38.8723Z" fill="url(#paint0_linear_309_723)" stroke="#313131" stroke-width="3" stroke-miterlimit="10"/>
<path d="M105.339 22.18C102.021 58.1011 98.6927 94.0222 95.3739 129.934C95.228 130.398 94.453 133.016 95.9209 135.626C97.8447 139.035 101.829 139.253 102.066 139.262C136.886 142.481 171.698 145.708 206.518 148.927C206.946 148.981 211.341 149.499 214.396 146.199C216.648 143.772 216.72 140.844 216.711 140.126C220.13 104.278 223.55 68.4383 226.96 32.59C227.26 31.6717 227.716 29.7989 226.978 27.8169C225.829 24.7348 222.264 22.671 218.097 22.8528C184.125 19.998 150.162 17.1342 116.189 14.2794C115.797 14.1703 111.749 13.1702 108.412 15.9341C105.576 18.2979 105.367 21.6346 105.339 22.18Z" fill="url(#paint1_linear_309_723)" stroke="#313131" stroke-width="3" stroke-miterlimit="10"/>
<path d="M90.7148 30.0263C90.8151 66.1019 90.9153 102.168 91.0156 138.244C90.9153 138.726 90.3865 141.399 92.1007 143.863C94.3436 147.081 98.328 146.917 98.565 146.899C133.531 146.827 168.497 146.745 203.463 146.672C203.892 146.69 208.314 146.79 211.049 143.217C213.064 140.59 212.855 137.662 212.782 136.953C212.782 100.95 212.782 64.9381 212.782 28.9353C212.991 27.9988 213.274 26.0805 212.344 24.1803C210.903 21.2256 207.156 19.5072 203.026 20.08C168.935 20.4437 134.853 20.7982 100.762 21.1619C100.361 21.0983 96.24 20.48 93.1765 23.5348C90.578 26.135 90.6874 29.4717 90.7148 30.0263Z" fill="url(#paint2_linear_309_723)" stroke="#313131" stroke-width="3" stroke-miterlimit="10"/>
<path d="M90.7419 39.1726H212.782" stroke="#313131" stroke-width="3" stroke-miterlimit="10"/>
<path d="M71.969 48.1186L90.7604 44.7546" stroke="#313131" stroke-width="3" stroke-miterlimit="10"/>
<path d="M225.811 44.7548L212.782 41.9636" stroke="#313131" stroke-width="3" stroke-miterlimit="10"/>
<path d="M122.617 133.062H177.961" stroke="#313131" stroke-width="3" stroke-miterlimit="10"/>
<path d="M115.806 122.934C127.277 122.934 136.576 113.661 136.576 102.223C136.576 90.7848 127.277 81.5122 115.806 81.5122C104.335 81.5122 95.0364 90.7848 95.0364 102.223C95.0364 113.661 104.335 122.934 115.806 122.934Z" fill="url(#paint3_linear_309_723)"/>
<path d="M92.9395 23.453C92.9395 23.453 75.6252 1.16935 50.8343 2.02397C27.2743 2.83312 13.8987 20.5073 11.7651 23.453C-3.77132 44.9729 0.678092 75.8117 14.9654 94.2223C34.3039 119.142 75.461 126.179 110.792 105.723" stroke="#313131" stroke-width="3" stroke-miterlimit="10"/>
<path d="M107.965 101.032L112.205 108.542L131.744 81.5122" stroke="#313131" stroke-width="3" stroke-miterlimit="10"/>
<path d="M131.133 88.2493C137.142 95.5499 138.045 105.532 133.54 113.015C128.216 121.852 117.977 122.852 116.91 122.943" stroke="#313131" stroke-width="3" stroke-miterlimit="10"/>
<path d="M245.295 71.1206H112.679C110.072 71.1206 107.965 69.0114 107.965 66.4203V54.0556C107.965 51.4554 110.081 49.3552 112.679 49.3552H245.286C247.894 49.3552 250 51.4645 250 54.0556V66.4203C250.009 69.0205 247.894 71.1206 245.295 71.1206Z" fill="url(#paint4_linear_309_723)"/>
<path d="M112.524 58.6194H244.037" stroke="#313131" stroke-width="3" stroke-miterlimit="10"/>
<path d="M140.907 88.2493L162.352 83.4307" stroke="#313131" stroke-width="3" stroke-miterlimit="10"/>
<path d="M143.287 105.596L159.753 111.978" stroke="#313131" stroke-width="3" stroke-miterlimit="10"/>
<path d="M131.744 121.916L138.528 128.834" stroke="#313131" stroke-width="3" stroke-miterlimit="10"/>
<path d="M121.195 78.0665C124.112 73.4935 127.03 68.9203 129.948 64.3381" stroke="#313131" stroke-width="3" stroke-miterlimit="10"/>
<defs>
<linearGradient id="paint0_linear_309_723" x1="139.505" y1="10.0444" x2="139.505" y2="153" gradientUnits="userSpaceOnUse">
<stop stop-color="#F8AD47"/>
<stop offset="1" stop-color="#F8AD47" stop-opacity="0"/>
</linearGradient>
<linearGradient id="paint1_linear_309_723" x1="161.208" y1="14.0144" x2="161.208" y2="148.988" gradientUnits="userSpaceOnUse">
<stop stop-color="#F8AD47"/>
<stop offset="1" stop-color="#F8AD47" stop-opacity="0"/>
</linearGradient>
<linearGradient id="paint2_linear_309_723" x1="151.849" y1="19.9705" x2="151.849" y2="146.906" gradientUnits="userSpaceOnUse">
<stop stop-color="#F8AD47"/>
<stop offset="1" stop-color="#F8AD47" stop-opacity="0"/>
</linearGradient>
<linearGradient id="paint3_linear_309_723" x1="115.806" y1="81.5122" x2="115.806" y2="122.934" gradientUnits="userSpaceOnUse">
<stop stop-color="#E73C3C"/>
<stop offset="1" stop-color="#E73C3C" stop-opacity="0"/>
</linearGradient>
<linearGradient id="paint4_linear_309_723" x1="178.983" y1="49.3552" x2="178.983" y2="71.1206" gradientUnits="userSpaceOnUse">
<stop stop-color="#E73C3C"/>
<stop offset="1" stop-color="#E73C3C" stop-opacity="0"/>
</linearGradient>
</defs>
</svg>
