<svg width="124" height="41" viewBox="0 0 124 41" fill="none" xmlns="http://www.w3.org/2000/svg">
<path fill-rule="evenodd" clip-rule="evenodd" d="M0 30.7597H4.06679V14.7632H10.5736V10.5736H0V30.7597Z" fill="#151616"/>
<path fill-rule="evenodd" clip-rule="evenodd" d="M23.2942 14.8571C25.8545 14.8571 28.2441 17.092 28.2441 21.1893C28.2441 24.7279 26.3666 27.5215 23.2942 27.5215C19.8805 27.5215 18.1736 24.5416 18.1736 21.1893C18.1736 17.092 20.7339 14.8571 23.2942 14.8571ZM18.5149 11.3186H14.4185V40.3721H18.5149V28.6389C20.3925 31.2463 23.1235 31.6188 23.9769 31.6188C28.2441 31.6188 32.682 27.5215 32.682 21.0031C32.682 14.6709 28.5855 10.5736 23.9769 10.5736C22.6114 10.5736 20.2218 10.9461 18.5149 13.181V11.3186Z" fill="#151616"/>
<path fill-rule="evenodd" clip-rule="evenodd" d="M44.0196 14.3585C46.8494 14.3585 49.6792 16.341 49.6792 20.4864C49.6792 23.9108 47.604 26.6143 44.0196 26.6143C40.4351 26.6143 38.3599 23.7306 38.3599 20.4864C38.5486 17.2422 40.6238 14.3585 44.0196 14.3585ZM49.4905 10.9341V13.2771C47.604 10.7538 44.9628 10.5736 43.4536 10.5736C37.228 10.5736 33.6436 15.4399 33.6436 20.6666C33.6436 25.8934 37.228 30.7597 43.2649 30.7597C46.6607 30.7597 48.5473 29.1375 49.3019 28.2364V30.219H53.8296V11.1143H49.4905V10.9341Z" fill="#151616"/>
<path fill-rule="evenodd" clip-rule="evenodd" d="M71.9502 15.1165C73.0803 15.1165 74.9638 15.3009 76.2822 16.0382C77.6007 16.96 78.7308 18.6191 78.7308 21.0156C78.7308 23.4121 77.6007 25.0712 76.4706 25.8086C75.3405 26.546 73.6453 26.9147 71.9502 26.9147V15.1165ZM67.4297 27.2834C65.9229 27.2834 64.0394 26.9147 62.9093 26.1774C61.7792 25.2556 60.6491 23.7808 60.6491 21.3843C60.6491 18.9878 61.7792 17.1443 63.0977 16.4069C64.2278 15.6695 66.1113 15.4852 67.4297 15.4852V27.2834ZM67.4297 40.3721H71.9502V31.3391C75.1521 31.3391 77.9774 30.6017 80.2376 28.7582C82.4978 26.9147 83.6279 24.3339 83.6279 21.1999C83.6279 18.6191 82.8745 15.8539 80.2376 13.6417C77.4123 11.2452 73.8337 11.0608 71.9502 11.0608V0H67.4297V11.0608C65.5462 11.0608 61.9675 11.2452 59.1423 13.6417C56.5054 15.8539 55.752 18.6191 55.752 21.1999C55.752 24.5182 56.8821 26.9147 59.1423 28.7582C61.4025 30.6017 64.2278 31.3391 67.4297 31.3391V40.3721Z" fill="#151616"/>
<path fill-rule="evenodd" clip-rule="evenodd" d="M94.6822 26.7945C91.7732 26.7945 88.6702 24.9922 88.6702 20.6666C88.6702 16.1608 91.7732 14.5387 94.6822 14.5387C97.5912 14.5387 100.694 16.341 100.694 20.6666C100.694 25.1724 97.5912 26.7945 94.6822 26.7945ZM94.6822 10.5736C88.4763 10.5736 83.6279 14.8992 83.6279 20.6666C83.6279 26.4341 88.2824 30.7597 94.6822 30.7597C100.888 30.7597 105.736 26.4341 105.736 20.6666C105.736 14.8992 100.888 10.5736 94.6822 10.5736Z" fill="#151616"/>
<path fill-rule="evenodd" clip-rule="evenodd" d="M106.698 30.7597H111.163V22.1901H119.349V30.7597H124V10.5736H119.349V18.0005H111.163V10.5736H106.698V30.7597Z" fill="#151616"/>
<path fill-rule="evenodd" clip-rule="evenodd" d="M73.0542 37.4883C73.0542 39.1104 74.3158 40.3721 75.9379 40.3721C77.56 40.3721 78.8216 39.1104 78.8216 37.4883C78.8216 35.8662 77.56 34.6046 75.9379 34.6046C74.4961 34.6046 73.0542 35.8662 73.0542 37.4883Z" fill="#E73C3C"/>
</svg>
