<svg width="82" height="82" viewBox="0 0 82 82" fill="none" xmlns="http://www.w3.org/2000/svg">
<path d="M32.4585 31.8604V50.1396C32.4585 51.5062 33.0564 52.5028 34.2522 53.1291C35.4481 53.7555 36.6154 53.6986 37.7543 52.9583L51.9335 43.9041C53.0154 43.2778 53.5564 42.3097 53.5564 41C53.5564 39.6903 53.0154 38.7222 51.9335 38.0958L37.7543 29.0416C36.6154 28.3014 35.4481 28.2444 34.2522 28.8708C33.0564 29.4972 32.4585 30.4937 32.4585 31.8604ZM41.0002 75.1666C36.2738 75.1666 31.8321 74.2692 27.6752 72.4743C23.5182 70.6817 19.9022 68.2479 16.8272 65.1729C13.7522 62.0979 11.3184 58.4819 9.52583 54.325C7.73094 50.168 6.8335 45.7264 6.8335 41C6.8335 36.2736 7.73094 31.8319 9.52583 27.675C11.3184 23.518 13.7522 19.9021 16.8272 16.8271C19.9022 13.7521 23.5182 11.3171 27.6752 9.52223C31.8321 7.72962 36.2738 6.83331 41.0002 6.83331C45.7266 6.83331 50.1682 7.72962 54.3252 9.52223C58.4821 11.3171 62.0981 13.7521 65.1731 16.8271C68.2481 19.9021 70.6819 23.518 72.4745 27.675C74.2694 31.8319 75.1668 36.2736 75.1668 41C75.1668 45.7264 74.2694 50.168 72.4745 54.325C70.6819 58.4819 68.2481 62.0979 65.1731 65.1729C62.0981 68.2479 58.4821 70.6817 54.3252 72.4743C50.1682 74.2692 45.7266 75.1666 41.0002 75.1666ZM41.0002 68.3333C48.5738 68.3333 55.0233 65.6717 60.3487 60.3486C65.6719 55.0231 68.3335 48.5736 68.3335 41C68.3335 33.4264 65.6719 26.9768 60.3487 21.6514C55.0233 16.3282 48.5738 13.6666 41.0002 13.6666C33.4266 13.6666 26.9782 16.3282 21.655 21.6514C16.3296 26.9768 13.6668 33.4264 13.6668 41C13.6668 48.5736 16.3296 55.0231 21.655 60.3486C26.9782 65.6717 33.4266 68.3333 41.0002 68.3333Z" fill="#FCFCFC"/>
</svg>
