<svg width="52" height="52" viewBox="0 0 52 52" fill="none" xmlns="http://www.w3.org/2000/svg">
<path d="M26 13C24.393 13 22.8221 13.4765 21.486 14.3693C20.1498 15.2621 19.1084 16.531 18.4935 18.0157C17.8785 19.5003 17.7176 21.134 18.0311 22.7101C18.3446 24.2862 19.1185 25.7339 20.2548 26.8702C21.3911 28.0065 22.8388 28.7804 24.4149 29.0939C25.991 29.4074 27.6247 29.2465 29.1093 28.6315C30.594 28.0166 31.8629 26.9752 32.7557 25.639C33.6485 24.3029 34.125 22.732 34.125 21.125C34.125 18.9701 33.269 16.9035 31.7452 15.3798C30.2215 13.856 28.1549 13 26 13ZM26 26C25.0358 26 24.0933 25.7141 23.2916 25.1784C22.4899 24.6427 21.8651 23.8814 21.4961 22.9906C21.1271 22.0998 21.0306 21.1196 21.2187 20.1739C21.4068 19.2283 21.8711 18.3596 22.5529 17.6779C23.2346 16.9961 24.1033 16.5318 25.0489 16.3437C25.9946 16.1556 26.9748 16.2521 27.8656 16.6211C28.7564 16.9901 29.5177 17.6149 30.0534 18.4166C30.5891 19.2183 30.875 20.1608 30.875 21.125C30.8737 22.4175 30.3597 23.6568 29.4457 24.5707C28.5318 25.4847 27.2925 25.9987 26 26Z" fill="#313131"/>
<path d="M26 3.25C21.5005 3.25 17.102 4.58426 13.3608 7.08407C9.61957 9.58387 6.70364 13.1369 4.98175 17.294C3.25986 21.451 2.80933 26.0252 3.68715 30.4383C4.56496 34.8514 6.73169 38.905 9.91333 42.0867C13.095 45.2683 17.1486 47.4351 21.5617 48.3129C25.9748 49.1907 30.549 48.7402 34.7061 47.0183C38.8631 45.2964 42.4161 42.3804 44.9159 38.6392C47.4157 34.898 48.75 30.4995 48.75 26C48.7431 19.9684 46.344 14.1859 42.0791 9.92092C37.8141 5.65596 32.0316 3.25688 26 3.25ZM16.25 42.8626V40.625C16.2513 39.3325 16.7653 38.0932 17.6793 37.1793C18.5933 36.2653 19.8325 35.7513 21.125 35.75H30.875C32.1675 35.7513 33.4068 36.2653 34.3207 37.1793C35.2347 38.0932 35.7487 39.3325 35.75 40.625V42.8626C32.7912 44.5903 29.4263 45.5008 26 45.5008C22.5737 45.5008 19.2089 44.5903 16.25 42.8626ZM38.987 40.5047C38.9546 38.3733 38.0862 36.3399 36.5689 34.8426C35.0515 33.3453 33.0067 32.504 30.875 32.5H21.125C18.9933 32.504 16.9485 33.3453 15.4312 34.8426C13.9138 36.3399 13.0454 38.3733 13.013 40.5047C10.0662 37.8735 7.98807 34.4092 7.05387 30.5706C6.11966 26.732 6.37342 22.7002 7.78155 19.009C9.18967 15.3179 11.6857 12.1415 14.9392 9.90042C18.1927 7.65938 22.0502 6.45942 26.0008 6.45942C29.9515 6.45942 33.8089 7.65938 37.0624 9.90042C40.3159 12.1415 42.812 15.3179 44.2201 19.009C45.6282 22.7002 45.882 26.732 44.9478 30.5706C44.0136 34.4092 41.9355 37.8735 38.9886 40.5047H38.987Z" fill="#313131"/>
</svg>
