<svg width="100" height="73" viewBox="0 0 100 73" fill="none" xmlns="http://www.w3.org/2000/svg">
<path fill-rule="evenodd" clip-rule="evenodd" d="M13.0437 3.74489C15.4415 1.34708 18.6936 0 22.0846 0H40.6822C44.0732 0 47.3254 1.34708 49.7232 3.74489C49.8105 3.83224 49.8965 3.92072 49.981 4.0103C50.0656 3.92072 50.1515 3.83224 50.2389 3.74489C52.6367 1.34708 55.8888 0 59.2798 0H77.8774C81.2684 0 84.5206 1.34708 86.9184 3.74489C89.3162 6.1427 90.6633 9.39482 90.6633 12.7858V22.0846C90.6633 24.0105 89.1021 25.5717 87.1762 25.5717C85.2504 25.5717 83.6892 24.0105 83.6892 22.0846V12.7858C83.6892 11.2445 83.0769 9.76623 81.9869 8.67632C80.897 7.5864 79.4188 6.9741 77.8774 6.9741H59.2798C57.7384 6.9741 56.2602 7.5864 55.1703 8.67632C54.0804 9.76623 53.4681 11.2445 53.4681 12.7858V40.6822C53.4681 42.6081 51.9069 44.1693 49.981 44.1693C48.0552 44.1693 46.494 42.6081 46.494 40.6822V12.7858C46.494 11.2445 45.8817 9.76623 44.7918 8.67632C43.7018 7.5864 42.2236 6.9741 40.6822 6.9741H22.0846C20.5433 6.9741 19.065 7.5864 17.9751 8.67632C16.8852 9.76623 16.2729 11.2445 16.2729 12.7858V22.0846C16.2729 24.0105 14.7117 25.5717 12.7858 25.5717C10.86 25.5717 9.2988 24.0105 9.2988 22.0846V12.7858C9.2988 9.39483 10.6459 6.1427 13.0437 3.74489ZM3.48705 51.1434C5.41289 51.1434 6.9741 52.7046 6.9741 54.6304V68.5786C6.9741 70.5045 5.41289 72.0657 3.48705 72.0657C1.5612 72.0657 0 70.5045 0 68.5786V54.6304C0 52.7046 1.5612 51.1434 3.48705 51.1434Z" fill="#313131"/>
<path fill-rule="evenodd" clip-rule="evenodd" d="M3.74489 22.3425C6.1427 19.9447 9.39483 18.5977 12.7858 18.5977C16.1769 18.5977 19.429 19.9447 21.8268 22.3425C24.2246 24.7404 25.5717 27.9925 25.5717 31.3835V37.1952H74.3904V31.3835C74.3904 27.9925 75.7374 24.7404 78.1353 22.3425C80.5331 19.9447 83.7852 18.5977 87.1762 18.5977C90.5672 18.5977 93.8194 19.9447 96.2172 22.3425C98.615 24.7404 99.9621 27.9925 99.9621 31.3835V68.5787C99.9621 70.5045 98.4008 72.0657 96.475 72.0657C94.5492 72.0657 92.988 70.5045 92.988 68.5787V62.7669H3.48705C1.5612 62.7669 0 61.2057 0 59.2799V31.3835C0 27.9925 1.34708 24.7404 3.74489 22.3425ZM92.988 55.7928V31.3835C92.988 29.8421 92.3756 28.3639 91.2857 27.274C90.1958 26.1841 88.7176 25.5718 87.1762 25.5718C85.6348 25.5718 84.1566 26.1841 83.0667 27.274C81.9768 28.3639 81.3645 29.8421 81.3645 31.3835V40.6823C81.3645 42.6081 79.8033 44.1693 77.8774 44.1693H22.0846C20.1588 44.1693 18.5976 42.6081 18.5976 40.6823V31.3835C18.5976 29.8421 17.9853 28.3639 16.8954 27.274C15.8055 26.1841 14.3272 25.5718 12.7858 25.5718C11.2445 25.5718 9.76623 26.1841 8.67632 27.274C7.5864 28.3639 6.9741 29.8421 6.9741 31.3835V55.7928H92.988Z" fill="#313131"/>
</svg>
