<svg width="32" height="32" viewBox="0 0 32 32" fill="none" xmlns="http://www.w3.org/2000/svg">
<path d="M19.45 4.10998C19.2902 4.03549 19.1135 4.00458 18.9379 4.02038C18.7623 4.03619 18.594 4.09815 18.45 4.19998L10.67 9.99998H3C2.73478 9.99998 2.48043 10.1053 2.29289 10.2929C2.10536 10.4804 2 10.7348 2 11V21C2 21.2652 2.10536 21.5196 2.29289 21.7071C2.48043 21.8946 2.73478 22 3 22H10.67L18.4 27.8C18.5486 27.9114 18.7252 27.9793 18.9102 27.9959C19.0952 28.0126 19.2811 27.9775 19.4472 27.8944C19.6133 27.8114 19.753 27.6837 19.8507 27.5257C19.9483 27.3677 20 27.1857 20 27V4.99998C19.9994 4.81532 19.9478 4.63441 19.8507 4.47732C19.7536 4.32023 19.6149 4.19308 19.45 4.10998Z" fill="#F6F6F6"/>
<path d="M27.4097 16L29.6997 13.71C29.8636 13.5187 29.9492 13.2727 29.9394 13.021C29.9297 12.7693 29.8254 12.5306 29.6473 12.3525C29.4692 12.1744 29.2305 12.07 28.9788 12.0603C28.7271 12.0506 28.481 12.1362 28.2897 12.3L25.9997 14.59L23.7097 12.3C23.5184 12.1362 23.2724 12.0506 23.0207 12.0603C22.769 12.07 22.5303 12.1744 22.3522 12.3525C22.1741 12.5306 22.0697 12.7693 22.06 13.021C22.0503 13.2727 22.1359 13.5187 22.2997 13.71L24.5897 16L22.2997 18.29C22.1951 18.3797 22.11 18.49 22.05 18.6141C21.99 18.7381 21.9563 18.8733 21.9509 19.011C21.9456 19.1487 21.9688 19.286 22.0191 19.4144C22.0694 19.5427 22.1456 19.6592 22.2431 19.7567C22.3405 19.8541 22.4571 19.9304 22.5854 19.9807C22.7137 20.0309 22.8511 20.0541 22.9888 20.0488C23.1265 20.0435 23.2616 20.0098 23.3857 19.9498C23.5098 19.8897 23.6201 19.8047 23.7097 19.7L25.9997 17.41L28.2897 19.7C28.481 19.8639 28.7271 19.9495 28.9788 19.9397C29.2305 19.93 29.4692 19.8257 29.6473 19.6476C29.8254 19.4695 29.9297 19.2308 29.9394 18.9791C29.9492 18.7274 29.8636 18.4813 29.6997 18.29L27.4097 16Z" fill="#F6F6F6"/>
</svg>
