<svg width="66" height="62" viewBox="0 0 66 62" fill="none" xmlns="http://www.w3.org/2000/svg">
<path d="M64.498 58.0575C64.4234 57.6725 64.2712 57.3067 64.0508 56.9824C59.6972 49.4985 52.8357 43.8085 44.697 40.9057C48.4151 38.4472 51.3077 34.9146 52.9804 30.7674C54.7857 26.2912 55.0702 21.3465 53.7899 16.6932C52.5096 12.0398 49.7356 7.93515 45.8939 5.00975C42.0523 2.08435 37.3556 0.5 32.5254 0.5C27.6952 0.5 22.9985 2.08435 19.1569 5.00975C15.3153 7.93515 12.5412 12.0398 11.261 16.6932C9.9807 21.3465 10.2651 26.2912 12.0705 30.7674C13.7432 34.9146 16.6357 38.4472 20.3538 40.9057C12.2152 43.8085 5.35365 49.4985 1.00004 56.9824C0.779631 57.3067 0.627439 57.6725 0.55281 58.0575C0.476895 58.4492 0.482885 58.8523 0.570402 59.2415C0.657919 59.6308 0.825066 59.9977 1.06132 60.3192C1.29756 60.6408 1.5978 60.91 1.94315 61.11C2.28849 61.31 2.67148 61.4365 3.06805 61.4815C3.46462 61.5265 3.86623 61.4891 4.24765 61.3716C4.62907 61.2541 4.98207 61.0591 5.28447 60.7987C5.58172 60.5427 5.82376 60.2291 5.99592 59.8769C8.68875 55.2346 12.5549 51.3802 17.2077 48.6997C21.8657 46.0161 27.1483 44.6034 32.5254 44.6034C37.9025 44.6034 43.1851 46.0161 47.8432 48.6997C52.4959 51.3802 56.3621 55.2346 59.0549 59.8769C59.2271 60.2291 59.4691 60.5427 59.7664 60.7987C60.0688 61.0591 60.4218 61.2541 60.8032 61.3716C61.1846 61.4891 61.5862 61.5265 61.9828 61.4815C62.3794 61.4365 62.7624 61.31 63.1077 61.11C63.453 60.91 63.7533 60.6408 63.9895 60.3192C64.2258 59.9977 64.3929 59.6308 64.4804 59.2415C64.568 58.8523 64.574 58.4492 64.498 58.0575ZM16.2619 22.5581C16.2619 19.3447 17.2156 16.2035 19.0026 13.5316C20.7897 10.8597 23.3296 8.77712 26.3015 7.54732C29.2733 6.31751 32.5435 5.99573 35.6984 6.62269C38.8533 7.24964 41.7512 8.79716 44.0257 11.0695C46.3001 13.3418 47.849 16.2368 48.4765 19.3884C49.104 22.5401 48.7819 25.8069 47.5511 28.7757C46.3202 31.7445 44.2357 34.282 41.5612 36.0674C38.8866 37.8528 35.7422 38.8057 32.5254 38.8057C28.2119 38.8057 24.0752 37.0938 21.0252 34.0468C17.9752 30.9997 16.2619 26.8671 16.2619 22.5581Z" fill="#313131" stroke="#313131"/>
</svg>
