<svg width="82" height="74" viewBox="0 0 82 74" fill="none" xmlns="http://www.w3.org/2000/svg">
<path fill-rule="evenodd" clip-rule="evenodd" d="M1.3386 3.79535C1.3386 1.69924 3.03783 0 5.13395 0H77.2456C79.3418 0 81.041 1.69924 81.041 3.79535C81.041 5.89147 79.3418 7.5907 77.2456 7.5907H43.0875V34.0635L73.106 42.1059C74.2844 42.4216 75.2393 43.2846 75.6722 44.4252C76.1051 45.5658 75.9633 46.845 75.2911 47.8631L72.0638 52.7513L64.5401 66.306C64.4928 66.3912 64.4423 66.4745 64.3886 66.5557L61.081 71.5637C60.1807 72.9267 58.5094 73.5608 56.9316 73.138L3.77584 58.8941C1.75123 58.3516 0.549718 56.2705 1.09215 54.2459L7.96743 28.5836C8.50988 26.5589 10.591 25.3573 12.6157 25.8997L35.4968 32.0299V7.5907H5.13395C3.03783 7.5907 1.3386 5.89147 1.3386 3.79535ZM14.3174 34.214L9.40641 52.5444L56.2545 65.0981L57.9742 62.4943L65.4977 48.9399C65.5449 48.8549 65.5953 48.7718 65.6489 48.6907L66.0552 48.0753L14.3174 34.214Z" fill="#313131"/>
<path fill-rule="evenodd" clip-rule="evenodd" d="M65.15 49.7999C65.6923 47.7752 67.7733 46.5734 69.7981 47.1158L77.1307 49.0799C78.103 49.3403 78.9321 49.9764 79.4354 50.8481C79.9388 51.7198 80.0753 52.7558 79.8148 53.7281L75.8866 68.3914C75.3442 70.416 73.2634 71.6177 71.2388 71.0755L60.2399 68.1303C58.2151 67.5882 57.0132 65.5072 57.5554 63.4824C58.0976 61.4577 60.1785 60.2558 62.2033 60.7979L69.5364 62.7615L71.5005 55.4301L67.8341 54.448C65.8094 53.9057 64.6076 51.8246 65.15 49.7999Z" fill="#313131"/>
</svg>
