<svg width="32" height="32" viewBox="0 0 32 32" fill="none" xmlns="http://www.w3.org/2000/svg">
<g clip-path="url(#clip0_321_758)">
<path d="M13.5387 4.30762C13.2055 4.30762 12.917 4.42967 12.6733 4.6731L6.26945 11.0771H1.23102C0.897464 11.0771 0.609041 11.1991 0.365479 11.4424C0.121849 11.686 0 11.9746 0 12.3079V19.6922C0 20.0256 0.121849 20.3141 0.365479 20.5576C0.609243 20.8012 0.897733 20.9232 1.23102 20.9232H6.26918L12.6731 27.3273C12.9167 27.5705 13.2052 27.6927 13.5384 27.6927C13.872 27.6927 14.1604 27.5705 14.4039 27.3273C14.6476 27.0839 14.7694 26.7951 14.7694 26.462V5.53863C14.7694 5.20535 14.6476 4.91666 14.4042 4.6731C14.1604 4.42967 13.8722 4.30762 13.5387 4.30762Z" fill="#F6F6F6"/>
<path d="M21.3363 18.7209C21.8814 17.8812 22.1536 16.9743 22.1536 16C22.1536 15.0257 21.8814 14.1146 21.3363 13.2683C20.7911 12.4222 20.0705 11.8262 19.1727 11.4799C19.0446 11.416 18.8841 11.3838 18.6918 11.3838C18.3588 11.3838 18.07 11.5025 17.8265 11.7396C17.5833 11.9767 17.4609 12.2685 17.4609 12.6145C17.4609 12.8838 17.5379 13.1114 17.6921 13.2973C17.8459 13.4834 18.0317 13.6437 18.25 13.7782C18.4675 13.9128 18.6856 14.0603 18.9039 14.2205C19.122 14.3808 19.3077 14.6084 19.4614 14.9032C19.6147 15.1982 19.6922 15.5636 19.6922 15.9996C19.6922 16.4354 19.6152 16.8008 19.4614 17.0959C19.3077 17.3909 19.122 17.6182 18.9039 17.7789C18.6856 17.9391 18.4675 18.0866 18.25 18.2212C18.0317 18.3554 17.8459 18.516 17.6921 18.7016C17.5384 18.8878 17.4609 19.1154 17.4609 19.3846C17.4609 19.7311 17.5833 20.0225 17.8265 20.2595C18.0699 20.4967 18.3587 20.6157 18.6918 20.6157C18.8841 20.6157 19.0445 20.5835 19.1727 20.5198C20.0705 20.1602 20.7913 19.5607 21.3363 18.7209Z" fill="#F6F6F6"/>
<path d="M25.4425 21.4325C26.5323 19.7725 27.0775 17.9616 27.0775 15.9999C27.0775 14.0382 26.5323 12.2276 25.4425 10.5665C24.3529 8.9065 22.9099 7.69825 21.1154 6.9417C20.949 6.87771 20.7822 6.84558 20.6159 6.84558C20.2826 6.84558 19.9938 6.96743 19.7501 7.21106C19.5067 7.45462 19.3848 7.74304 19.3848 8.07639C19.3848 8.57645 19.6349 8.95466 20.1351 9.21129C20.8529 9.58297 21.3399 9.86499 21.5962 10.0572C22.5452 10.7497 23.2853 11.6181 23.8174 12.663C24.3494 13.708 24.6154 14.8202 24.6154 15.9997C24.6154 17.1792 24.3494 18.2913 23.8174 19.3363C23.2854 20.3814 22.5447 21.2497 21.5962 21.9419C21.3399 22.1343 20.8529 22.4163 20.1351 22.7881C19.6349 23.0447 19.3848 23.4229 19.3848 23.9229C19.3848 24.2561 19.5067 24.545 19.7501 24.7882C19.9937 25.0321 20.2884 25.1541 20.6346 25.1541C20.7886 25.1541 20.949 25.1215 21.1154 25.0579C22.9099 24.3012 24.3529 23.0929 25.4425 21.4325Z" fill="#F6F6F6"/>
<path d="M29.5582 7.87533C27.9301 5.4075 25.7631 3.58994 23.0579 2.42325C22.8914 2.35927 22.7246 2.32727 22.5584 2.32727C22.2251 2.32727 21.9363 2.44925 21.693 2.69261C21.4491 2.93611 21.3271 3.22487 21.3271 3.55815C21.3271 4.01961 21.5773 4.39802 22.0775 4.69285C22.1674 4.74377 22.311 4.81106 22.5099 4.89465C22.7086 4.97763 22.8527 5.04492 22.9428 5.09625C23.5325 5.41653 24.0583 5.74361 24.5202 6.07696C26.0968 7.24345 27.3278 8.69863 28.2124 10.4423C29.0971 12.1858 29.5392 14.0384 29.5392 16.0001C29.5392 17.9621 29.0971 19.8142 28.2124 21.5578C27.328 23.3016 26.0968 24.757 24.5202 25.9231C24.0583 26.2564 23.5325 26.5833 22.9428 26.904C22.8527 26.9549 22.7086 27.022 22.5099 27.1054C22.311 27.1884 22.1674 27.2557 22.0775 27.3073C21.5773 27.602 21.3271 27.9804 21.3271 28.4419C21.3271 28.7752 21.4491 29.0638 21.693 29.3073C21.9362 29.5509 22.225 29.6728 22.5584 29.6728C22.7246 29.6728 22.8914 29.6408 23.0579 29.5765C25.7631 28.4102 27.9301 26.5925 29.5582 24.1246C31.1865 21.6568 32.0004 18.9483 32.0004 15.9997C32.0004 13.051 31.1867 10.3429 29.5582 7.87533Z" fill="#F6F6F6"/>
</g>
<defs>
<clipPath id="clip0_321_758">
<rect width="32.0001" height="32" fill="white"/>
</clipPath>
</defs>
</svg>
