<svg width="60" height="60" viewBox="0 0 60 60" fill="none" xmlns="http://www.w3.org/2000/svg">
<path d="M58.5355 33.5355C59.4732 32.5979 60 31.3261 60 30C60 28.6739 59.4732 27.4021 58.5355 26.4645C57.5979 25.5268 56.3261 25 55 25H35V5C35 3.67392 34.4732 2.40215 33.5355 1.46447C32.5979 0.526786 31.3261 0 30 0C28.6739 0 27.4021 0.526786 26.4645 1.46447C25.5268 2.40215 25 3.67392 25 5V25H5C3.67392 25 2.40215 25.5268 1.46447 26.4645C0.526784 27.4021 0 28.6739 0 30C0 31.3261 0.526784 32.5979 1.46447 33.5355C2.40215 34.4732 3.67392 35 5 35H25V55C25 56.3261 25.5268 57.5979 26.4645 58.5355C27.4021 59.4732 28.6739 60 30 60C31.3261 60 32.5979 59.4732 33.5355 58.5355C34.4732 57.5979 35 56.3261 35 55V35H55C56.3261 35 57.5979 34.4732 58.5355 33.5355Z" fill="#E73C3C"/>
</svg>
