<svg width="65" height="72" viewBox="0 0 65 72" fill="none" xmlns="http://www.w3.org/2000/svg">
<path d="M61.3888 21.6602L39.7223 2.74687C37.7361 0.977947 35.1648 0 32.5001 0C29.8354 0 27.2641 0.977947 25.2779 2.74687L3.61143 21.6602C2.46443 22.6817 1.54914 23.9347 0.926484 25.3359C0.303831 26.7371 -0.0118897 28.2543 0.00034231 29.7865V61.2129C0.00034231 64.0738 1.1417 66.8176 3.17333 68.8405C5.20496 70.8635 7.96044 72 10.8336 72H54.1666C57.0398 72 59.7953 70.8635 61.8269 68.8405C63.8585 66.8176 64.9999 64.0738 64.9999 61.2129V29.7506C65.007 28.2244 64.6888 26.7141 64.0663 25.3195C63.4438 23.9249 62.5312 22.6777 61.3888 21.6602ZM39.7223 64.8086H25.2779V46.8301C25.2779 45.8765 25.6584 44.9619 26.3356 44.2876C27.0128 43.6133 27.9313 43.2344 28.889 43.2344H36.1112C37.0689 43.2344 37.9874 43.6133 38.6646 44.2876C39.3418 44.9619 39.7223 45.8765 39.7223 46.8301V64.8086ZM57.7777 61.2129C57.7777 62.1665 57.3973 63.0811 56.72 63.7555C56.0428 64.4298 55.1243 64.8086 54.1666 64.8086H46.9445V46.8301C46.9445 43.9692 45.8031 41.2255 43.7715 39.2025C41.7398 37.1795 38.9844 36.043 36.1112 36.043H28.889C26.0159 36.043 23.2604 37.1795 21.2288 39.2025C19.1971 41.2255 18.0558 43.9692 18.0558 46.8301V64.8086H10.8336C9.87588 64.8086 8.95739 64.4298 8.28018 63.7555C7.60297 63.0811 7.22251 62.1665 7.22251 61.2129V29.7506C7.22316 29.24 7.33299 28.7355 7.54468 28.2705C7.75638 27.8055 8.06509 27.3907 8.45028 27.0538L30.1168 8.17637C30.7758 7.59991 31.6229 7.282 32.5001 7.282C33.3773 7.282 34.2244 7.59991 34.8834 8.17637L56.5499 27.0538C56.9351 27.3907 57.2438 27.8055 57.4555 28.2705C57.6672 28.7355 57.7771 29.24 57.7777 29.7506V61.2129Z" fill="#313131"/>
</svg>
