<svg width="65" height="64" viewBox="0 0 65 64" fill="none" xmlns="http://www.w3.org/2000/svg">
<path d="M2 62H4.91045M62.6716 62H59.5373M59.5373 62H48.5672M59.5373 62V20.1343H48.5672M48.5672 20.1343V62M48.5672 20.1343V7.14925H44.7612M48.5672 62H40.2836M15.6567 62V20.1343M15.6567 62H4.91045M15.6567 62H24.1642M15.6567 20.1343V7.14925H19.6866M15.6567 20.1343H4.91045V62M19.6866 7.14925V2H44.7612V7.14925M19.6866 7.14925H44.7612M24.1642 62V51.7015H32.2239H40.2836V62M24.1642 62H32.2239H40.2836M21.2537 12.9701H42.9701V45.209H21.2537V12.9701Z" stroke="#313131" stroke-width="4" stroke-linecap="round" stroke-linejoin="round"/>
</svg>
