<svg width="64" height="60" viewBox="0 0 64 60" fill="none" xmlns="http://www.w3.org/2000/svg">
<path d="M37.8947 12.6316V6.31579H25.2632V12.6316H37.8947ZM6.31579 18.9474V53.6842H56.8421V18.9474H6.31579ZM56.8421 12.6316C60.3474 12.6316 63.1579 15.4421 63.1579 18.9474V53.6842C63.1579 57.1895 60.3474 60 56.8421 60H6.31579C2.81053 60 0 57.1895 0 53.6842L0.0315789 18.9474C0.0315789 15.4421 2.81053 12.6316 6.31579 12.6316H18.9474V6.31579C18.9474 2.81053 21.7579 0 25.2632 0H37.8947C41.4 0 44.2105 2.81053 44.2105 6.31579V12.6316H56.8421Z" fill="#313131"/>
</svg>
